<?xml version="1.0" encoding="utf-8"?>
<!-- Generator: Adobe Illustrator 25.2.0, SVG Export Plug-In . SVG Version: 6.00 Build 0)  -->
<svg version="1.1" id="Layer_1" xmlns="http://www.w3.org/2000/svg" xmlns:xlink="http://www.w3.org/1999/xlink" x="0px" y="0px"
	 viewBox="0 0 72 72" style="enable-background:new 0 0 72 72;" xml:space="preserve">
<path d="M63,20.9c-2.8-4.5-6.4-8.1-11.2-10.6C47,7.8,41.7,6.4,35.9,6.4c-5.9,0-11.2,1.4-15.9,3.9s-8.4,6.1-11.2,10.6
	S4.8,30.4,4.8,36s1.4,10.6,3.9,15.1c2.8,4.5,6.4,8.1,11.2,10.6c4.8,2.5,10.1,3.9,15.9,3.9c5.9,0,11.2-1.4,15.9-3.9
	s8.4-6.1,11.2-10.6s4.2-9.5,4.2-15.1C67.2,30.4,65.8,25.4,63,20.9z M19.1,39.6c-0.3,0-0.3,0-0.6,0c0-0.3,0-0.3,0.3-0.3
	c0.6-0.8,1.4-1.7,2-2.2c3.4-3.9,6.7-7.8,10.1-11.7c0.6-0.6,1.1-1.1,1.7-2c0.8-1.1,2-1.7,3.4-2c0.3,0,0.8,0,1.1,0c3.4,0,7,0,10.3,0
	h0.3c0,0.3-0.3,0.3-0.3,0.6c-0.6,0.8-1.4,1.7-2,2.2C42,28.2,38.7,32.1,35.3,36c-0.6,0.6-1.1,1.1-1.4,1.7c-0.8,0.8-1.7,1.7-3.1,2
	c-0.6,0-0.8,0.3-1.4,0.3c-0.6,0-1.1,0-1.4,0C25.2,39.6,22.2,39.6,19.1,39.6z M52.9,32.9c-0.8,0.8-1.7,2-2.5,2.8
	c-3.6,4.2-7.3,8.4-10.6,12.6c-0.3,0.3-0.6,0.6-0.8,0.8c-0.8,0.8-2,1.4-3.1,1.7c-0.3,0-0.8,0-1.4,0c-2,0-3.9,0-5.9,0
	c-1.4,0-3.1,0-4.5,0c0,0-0.3,0-0.6,0c0.3-0.3,0.3-0.3,0.3-0.3c2.2-2.5,4.5-5,6.4-7.8c2.2-2.8,4.8-5.6,7-8.4c0.8-1.1,2.2-2,3.6-2
	c0.3,0,0.8,0,1.1,0c3.4,0,6.7,0,10.3,0h0.3C53.2,32.6,52.9,32.9,52.9,32.9z"/>
</svg>
