<?xml version="1.0" encoding="utf-8"?>
<!-- Generator: Adobe Illustrator 25.2.0, SVG Export Plug-In . SVG Version: 6.00 Build 0)  -->
<svg version="1.1" id="Layer_1" xmlns="http://www.w3.org/2000/svg" xmlns:xlink="http://www.w3.org/1999/xlink" x="0px" y="0px"
	 viewBox="0 0 270 270" style="enable-background:new 0 0 270 270;" xml:space="preserve">
<style type="text/css">
	.st0{fill:#FFFFFF;}
	.st1{fill:#E9E8E8;}
	.st2{fill:#FFE000;}
</style>
<g>
	<g id="Background">
	</g>
	<g id="Circles_on_background">
	</g>
	<g id="Name">
	</g>
	<g id="Back_paper">
		<g id="Fill_3_">
		</g>
		<g id="Stroke">
		</g>
	</g>
	<g id="Resume">
		<g id="Fill_1_">
		</g>
		<g id="Stroke_1_">
		</g>
		<g id="Man">
			<g id="Fill_2_">
			</g>
			<g id="Stroke_2_">
			</g>
		</g>
		<g id="Bars">
		</g>
		<g id="Text">
		</g>
	</g>
	<g id="Pen">
		<g id="Fill">
		</g>
		<g id="Outlines">
		</g>
	</g>
	<path class="st0" d="M250,255.5H19.1V47.8L250,48.1V255.5L250,255.5z M16.9,17.6V259h236.2V17.9L16.9,17.6L16.9,17.6z"/>
	<path class="st1" d="M43,27.8c0,0-5-0.1-5,5.4c0,5.5,5,5.4,5,5.4s6,1.1,6-5.4C49,27.1,43,27.8,43,27.8L43,27.8z"/>
	<path class="st1" d="M60.6,28.1c0,0-5-0.1-5,5.4c0,5.5,5,5.4,5,5.4s6,1.1,6-5.4C66.6,27.4,60.6,28.1,60.6,28.1L60.6,28.1z"/>
	<path class="st1" d="M78.4,28.8c0,0-5-0.1-5,5.4c0,5.5,5,5.4,5,5.4s6,1.1,6-5.4C84.4,28.1,78.4,28.8,78.4,28.8L78.4,28.8z"/>
	<polygon class="st1" points="55.8,67.7 55.8,68.8 82.8,68.6 82.8,103.7 34.4,103.7 34.4,68.9 43.5,68.9 43.5,67.8 33.3,67.8 
		33.3,107 84.1,107 84.1,67.5 55.8,67.7 	"/>
	<polygon class="st1" points="91.7,67.8 91.7,106.4 195.4,106.4 195.4,104.4 93.2,104.4 93.2,69 235.8,69.3 235.8,104.4 
		214.2,104.4 214.2,106.4 237.6,106.4 237.6,68.1 91.7,67.8 	"/>
	<path class="st2" d="M82.2,63.7c0,0-22.1,25.6-23.1,25.4c-1-0.1-15.6-10.7-16.1-10.4c-0.4,0.3-3.9,3.8,1.3,7.7
		c5.3,3.9,15.5,10.2,16.7,9.9c1.2-0.3,13.4-15.1,17.5-19.7C82.7,72.1,86.9,63.9,82.2,63.7L82.2,63.7z"/>
	<polygon class="st1" points="56.1,124.4 56.1,125.5 83.1,125.3 83.1,160.4 34.7,160.4 34.7,125.6 43.8,125.6 43.8,124.5 
		33.6,124.5 33.6,163.7 84.4,163.7 84.4,124.2 56.1,124.4 	"/>
	<polygon class="st1" points="92.3,124.5 92.3,163.1 195.9,163.1 195.9,161.1 93.8,161.1 93.8,125.7 236.4,126 236.4,161.1 
		214.8,161.1 214.8,163.1 238.2,163.1 238.2,124.8 92.3,124.5 	"/>
	<path class="st2" d="M82.2,119.3c0,0-22.1,25.6-23.1,25.4c-1-0.1-15.6-10.7-16.1-10.4c-0.4,0.3-3.9,3.8,1.3,7.7
		c5.3,3.9,15.5,10.2,16.7,9.9c1.2-0.3,13.4-15.1,17.5-19.7C82.7,127.6,86.9,119.4,82.2,119.3L82.2,119.3z"/>
	<polygon class="st1" points="99.2,132.7 99.3,134.2 130.2,134.2 130.2,132.7 99.2,132.7 	"/>
	<polygon class="st2" points="131.5,132.7 131.6,134.2 162.5,134.2 162.5,132.7 131.5,132.7 	"/>
	<polygon class="st1" points="163.4,132.6 163.6,134 213.2,134 213.2,132.6 163.4,132.6 	"/>
	<polygon class="st2" points="214.4,132.6 214.4,134 229.6,134 229.6,132.6 214.4,132.6 	"/>
	<polygon class="st2" points="116,138 116.1,139.4 140,139.4 140,138 116,138 	"/>
	<polygon class="st2" points="141,138 141.1,139.4 156,139.4 156,138 141,138 	"/>
	<polygon class="st2" points="157.2,138 157.4,139.4 196.8,139.4 196.8,138 157.2,138 	"/>
	<polygon class="st1" points="197.7,138 197.8,139.4 217.4,139.4 217.4,138 197.7,138 	"/>
	<polygon class="st2" points="99.3,142.4 99.4,143.8 122.1,143.8 122.1,142.4 99.3,142.4 	"/>
	<polygon class="st2" points="123.3,142.4 123.4,143.8 138.4,143.8 138.4,142.4 123.3,142.4 	"/>
	<polygon class="st1" points="139.4,142.4 139.6,143.8 170.4,143.8 170.4,142.4 139.4,142.4 	"/>
	<polygon class="st2" points="171.6,142.3 171.7,143.7 199.5,143.7 199.5,142.3 171.6,142.3 	"/>
	<polygon class="st1" points="200.8,142.2 200.9,143.6 231.8,143.6 231.8,142.2 200.8,142.2 	"/>
	<polygon class="st1" points="56.5,181.2 56.5,182.3 83.5,182.2 83.5,217.2 35,217.2 35,182.4 44.2,182.4 44.2,181.3 33.9,181.4 
		33.9,220.5 84.8,220.5 84.8,181.1 56.5,181.2 	"/>
	<polygon class="st1" points="92.7,181.4 92.7,219.9 196.3,219.9 196.3,217.9 94.2,217.9 94.2,182.5 236.8,182.8 236.8,217.9 
		215.2,217.9 215.2,219.9 238.5,219.9 238.5,181.6 92.7,181.4 	"/>
	<polygon class="st2" points="99.6,189.5 99.7,191 130.5,191 130.5,189.5 99.6,189.5 	"/>
	<polygon class="st1" points="131.9,189.5 132,191 162.8,191 162.8,189.5 131.9,189.5 	"/>
	<polygon class="st2" points="163.7,189.4 164,190.9 213.6,190.9 213.6,189.4 163.7,189.4 	"/>
	<polygon class="st1" points="214.7,189.4 214.8,190.9 229.9,190.9 229.9,189.4 214.7,189.4 	"/>
	<polygon class="st1" points="116.4,194.8 116.5,196.3 140.3,196.3 140.3,194.8 116.4,194.8 	"/>
	<polygon class="st1" points="141.4,194.8 141.4,196.3 156.4,196.3 156.4,194.8 141.4,194.8 	"/>
	<polygon class="st1" points="157.6,194.8 157.8,196.3 197.2,196.3 197.2,194.8 157.6,194.8 	"/>
	<polygon class="st2" points="198.1,194.8 198.2,196.3 217.8,196.3 217.8,194.8 198.1,194.8 	"/>
	<polygon class="st1" points="99.7,199.2 99.8,200.6 122.4,200.6 122.4,199.2 99.7,199.2 	"/>
	<polygon class="st1" points="123.7,199.2 123.8,200.6 138.7,200.6 138.7,199.2 123.7,199.2 	"/>
	<polygon class="st2" points="139.8,199.2 139.9,200.6 170.8,200.6 170.8,199.2 139.8,199.2 	"/>
	<polygon class="st1" points="171.9,199.1 172.1,200.5 199.9,200.5 199.9,199.1 171.9,199.1 	"/>
	<polygon class="st2" points="201.2,199 201.3,200.4 232.1,200.4 232.1,199 201.2,199 	"/>
</g>
</svg>
