<?xml version="1.0" encoding="utf-8"?>
<!-- Generator: Adobe Illustrator 25.2.0, SVG Export Plug-In . SVG Version: 6.00 Build 0)  -->
<svg version="1.1" id="Layer_1" xmlns="http://www.w3.org/2000/svg" xmlns:xlink="http://www.w3.org/1999/xlink" x="0px" y="0px"
	 viewBox="0 0 95 101" style="enable-background:new 0 0 95 101;" xml:space="preserve">
<g>
	<g>
		<path d="M16.2,35.8c1.3,0.6,2.4,1.5,3.1,2.6c0.7,1.1,1.1,2.4,1.1,3.9c0,1.5-0.4,2.8-1.1,3.9c-0.7,1.1-1.7,2-3.1,2.6
			c-1.3,0.6-2.9,0.9-4.7,0.9H7.4v5.6H2.7V34.9h8.8C13.3,34.9,14.9,35.2,16.2,35.8z M14.5,45c0.7-0.6,1.1-1.5,1.1-2.6
			c0-1.1-0.4-2-1.1-2.6c-0.7-0.6-1.8-0.9-3.2-0.9H7.4v7.1h3.8C12.7,45.9,13.7,45.6,14.5,45z"/>
		<path d="M36.1,51h-9.5l-1.8,4.4H20l9.1-20.4h4.7l9.1,20.4h-5L36.1,51z M34.6,47.4l-3.2-7.8l-3.2,7.8H34.6z"/>
		<path d="M87.9,55.3l0-12.2l-6,10.1h-2.1l-6-9.8v12h-4.4V34.9h3.9l7.6,12.7l7.5-12.7h3.9l0.1,20.4H87.9z"/>
		<path d="M64.3,39.7c-1-1.6-2.3-2.9-4-3.8c-1.7-0.9-3.6-1.4-5.7-1.4c-2.1,0-4,0.5-5.7,1.4c-1.7,0.9-3,2.2-4,3.8
			c-1,1.6-1.4,3.4-1.4,5.4c0,2,0.5,3.8,1.4,5.4c1,1.6,2.3,2.9,4,3.8c1.7,0.9,3.6,1.4,5.7,1.4c2.1,0,4-0.5,5.7-1.4
			c1.7-0.9,3-2.2,4-3.8c1-1.6,1.5-3.4,1.5-5.4C65.8,43.1,65.3,41.3,64.3,39.7z M48.6,46.4c-0.1,0-0.1,0-0.2,0c0-0.1,0-0.1,0.1-0.1
			c0.2-0.3,0.5-0.6,0.7-0.8c1.2-1.4,2.4-2.8,3.6-4.2c0.2-0.2,0.4-0.4,0.6-0.7c0.3-0.4,0.7-0.6,1.2-0.7c0.1,0,0.3,0,0.4,0
			c1.2,0,2.5,0,3.7,0c0,0,0.1,0,0.1,0c0,0.1-0.1,0.1-0.1,0.2c-0.2,0.3-0.5,0.6-0.7,0.8c-1.2,1.4-2.4,2.8-3.6,4.2
			c-0.2,0.2-0.4,0.4-0.5,0.6c-0.3,0.3-0.6,0.6-1.1,0.7c-0.2,0-0.3,0.1-0.5,0.1c-0.2,0-0.4,0-0.5,0C50.8,46.4,49.7,46.4,48.6,46.4z
			 M60.7,44c-0.3,0.3-0.6,0.7-0.9,1c-1.3,1.5-2.6,3-3.8,4.5c-0.1,0.1-0.2,0.2-0.3,0.3c-0.3,0.3-0.7,0.5-1.1,0.6c-0.1,0-0.3,0-0.5,0
			c-0.7,0-1.4,0-2.1,0c-0.5,0-1.1,0-1.6,0c0,0-0.1,0-0.2,0c0.1-0.1,0.1-0.1,0.1-0.1c0.8-0.9,1.6-1.8,2.3-2.8c0.8-1,1.7-2,2.5-3
			c0.3-0.4,0.8-0.7,1.3-0.7c0.1,0,0.3,0,0.4,0c1.2,0,2.4,0,3.7,0c0,0,0.1,0,0.1,0C60.8,43.9,60.7,44,60.7,44z"/>
	</g>
	<path d="M13.6,66.2c-0.4-0.1-0.8-0.3-1-0.5l0.3-0.7c0.2,0.2,0.5,0.4,0.9,0.5c0.4,0.1,0.7,0.2,1.1,0.2c0.5,0,0.9-0.1,1.1-0.3
		c0.2-0.2,0.4-0.4,0.4-0.7c0-0.2-0.1-0.4-0.2-0.5C16,64.1,15.9,64,15.7,64c-0.2-0.1-0.5-0.1-0.8-0.2c-0.5-0.1-0.8-0.2-1.1-0.3
		c-0.3-0.1-0.5-0.3-0.7-0.5c-0.2-0.2-0.3-0.5-0.3-0.9c0-0.3,0.1-0.6,0.3-0.9c0.2-0.3,0.4-0.5,0.8-0.6c0.3-0.2,0.8-0.2,1.3-0.2
		c0.4,0,0.7,0,1,0.1c0.3,0.1,0.6,0.2,0.9,0.4l-0.3,0.7c-0.3-0.2-0.5-0.3-0.8-0.4C15.6,61,15.3,61,15,61c-0.5,0-0.9,0.1-1.1,0.3
		c-0.2,0.2-0.4,0.4-0.4,0.7c0,0.2,0.1,0.4,0.2,0.5c0.1,0.1,0.3,0.2,0.5,0.3c0.2,0.1,0.5,0.1,0.8,0.2c0.5,0.1,0.8,0.2,1.1,0.3
		c0.3,0.1,0.5,0.3,0.7,0.5c0.2,0.2,0.3,0.5,0.3,0.9c0,0.3-0.1,0.6-0.3,0.9c-0.2,0.3-0.4,0.5-0.8,0.6c-0.3,0.2-0.8,0.2-1.3,0.2
		C14.4,66.4,14,66.3,13.6,66.2z"/>
	<path d="M27.9,64.3v2.1h-0.8v-2.1l-2.4-3.9h0.9l1.9,3.2l1.9-3.2h0.8L27.9,64.3z"/>
	<path d="M38.8,66.2c-0.4-0.1-0.8-0.3-1-0.5l0.3-0.7c0.2,0.2,0.5,0.4,0.9,0.5c0.4,0.1,0.7,0.2,1.1,0.2c0.5,0,0.9-0.1,1.1-0.3
		c0.2-0.2,0.4-0.4,0.4-0.7c0-0.2-0.1-0.4-0.2-0.5c-0.1-0.1-0.3-0.2-0.5-0.3c-0.2-0.1-0.5-0.1-0.8-0.2c-0.5-0.1-0.8-0.2-1.1-0.3
		c-0.3-0.1-0.5-0.3-0.7-0.5c-0.2-0.2-0.3-0.5-0.3-0.9c0-0.3,0.1-0.6,0.3-0.9c0.2-0.3,0.4-0.5,0.8-0.6c0.3-0.2,0.8-0.2,1.3-0.2
		c0.4,0,0.7,0,1,0.1c0.3,0.1,0.6,0.2,0.9,0.4l-0.3,0.7c-0.3-0.2-0.5-0.3-0.8-0.4C40.8,61,40.5,61,40.2,61c-0.5,0-0.9,0.1-1.1,0.3
		c-0.2,0.2-0.4,0.4-0.4,0.7c0,0.2,0.1,0.4,0.2,0.5c0.1,0.1,0.3,0.2,0.5,0.3c0.2,0.1,0.5,0.1,0.8,0.2c0.5,0.1,0.8,0.2,1.1,0.3
		c0.3,0.1,0.5,0.3,0.7,0.5c0.2,0.2,0.3,0.5,0.3,0.9c0,0.3-0.1,0.6-0.3,0.9c-0.2,0.3-0.4,0.5-0.8,0.6c-0.3,0.2-0.8,0.2-1.3,0.2
		C39.6,66.4,39.2,66.3,38.8,66.2z"/>
	<path d="M52.1,61.1H50v-0.7h5v0.7h-2.1v5.3h-0.8V61.1z"/>
	<path d="M67.6,65.6v0.7h-4.4v-6h4.2v0.7h-3.4v1.8h3v0.7h-3v1.9H67.6z"/>
	<path d="M81.8,66.3l0-4.4l-2.2,3.6h-0.4L77.1,62v4.3h-0.8v-6H77l2.5,4.2l2.5-4.2h0.7l0,6H81.8z"/>
</g>
</svg>
