<?xml version="1.0" encoding="utf-8"?>
<!-- Generator: Adobe Illustrator 25.2.0, SVG Export Plug-In . SVG Version: 6.00 Build 0)  -->
<svg version="1.1" id="Layer_1" xmlns="http://www.w3.org/2000/svg" xmlns:xlink="http://www.w3.org/1999/xlink" x="0px" y="0px"
	 viewBox="0 0 154.3 164.1" style="enable-background:new 0 0 154.3 164.1;" xml:space="preserve">
<g>
	<g>
		<path d="M24.7,60.7c2.2,1,3.9,2.4,5.1,4.2c1.2,1.9,1.9,4.1,1.9,6.6c0,2.5-0.7,4.8-1.9,6.6c-1.2,1.9-2.9,3.2-5.1,4.2
			c-2.2,1-4.9,1.5-7.8,1.5h-7v9.5H2V59.1h14.8C19.8,59.1,22.5,59.7,24.7,60.7z M21.9,75.9c1.2-1,1.9-2.5,1.9-4.4s-0.7-3.4-1.9-4.4
			c-1.2-1-3.1-1.5-5.4-1.5H10v11.9h6.4C18.8,77.5,20.7,77,21.9,75.9z"/>
		<path d="M58.2,86H42.2l-3.1,7.3H31L46.3,59h7.8l15.3,34.3H61L58.2,86z M55.6,80L50.2,67L44.8,80H55.6z"/>
		<path d="M144.9,93.2V72.7l-10,17h-3.6l-10-16.5v20h-7.5V59.1h6.6l12.7,21.2l12.6-21.2h6.4l0.2,34.3h-7.5V93.2z"/>
		<path d="M105.3,67.1c-1.7-2.7-3.9-4.8-6.6-6.3c-2.9-1.5-6.1-2.4-9.5-2.4c-3.6,0-6.8,0.8-9.7,2.4c-2.9,1.5-5.1,3.6-6.6,6.3
			c-1.7,2.7-2.4,5.8-2.4,9c0,3.4,0.8,6.4,2.4,9c1.7,2.7,3.9,4.8,6.6,6.3c2.9,1.5,6.1,2.4,9.7,2.4c3.6,0,6.8-0.8,9.5-2.4
			c2.9-1.5,5.1-3.6,6.6-6.3c1.7-2.7,2.4-5.8,2.4-9C107.9,72.9,107,69.8,105.3,67.1z M79,78.3c-0.2,0-0.2,0-0.3,0
			c0-0.2,0-0.2,0.2-0.2c0.3-0.5,0.8-1,1.2-1.4c2-2.4,4.1-4.8,6.1-7.1c0.3-0.3,0.7-0.7,1-1.2c0.5-0.7,1.2-1,2-1.2c0.2,0,0.5,0,0.7,0
			c2,0,4.2,0,6.3,0h0.2c0,0.2-0.2,0.2-0.2,0.3c-0.3,0.5-0.8,1-1.2,1.4c-2,2.4-3.9,4.8-5.9,7c-0.3,0.3-0.7,0.7-0.8,1
			c-0.5,0.5-1,1-1.9,1.2c-0.2,0-0.5,0.2-0.8,0.2c-0.3,0-0.7,0-0.8,0C82.8,78.3,80.9,78.3,79,78.3z M99.2,74.2
			c-0.5,0.5-1,1.2-1.5,1.7c-2.2,2.5-4.2,5.1-6.4,7.6c-0.2,0.2-0.3,0.3-0.5,0.5c-0.5,0.5-1.2,0.8-1.9,1c-0.2,0-0.5,0-0.7,0
			c-1.2,0-2.4,0-3.4,0c-0.8,0-1.7,0-2.7,0c0,0-0.2,0-0.3,0c0.2-0.2,0.2-0.2,0.2-0.2c1.4-1.5,2.5-3.1,3.9-4.6
			c1.4-1.7,2.9-3.4,4.2-4.9c0.5-0.7,1.4-1,2.2-1.2c0.2,0,0.5,0,0.7,0c2,0,4.1,0,6.1,0L99.2,74.2C99.4,74.2,99.4,74.2,99.2,74.2z"/>
	</g>
	<path d="M20.3,111.6c-0.7-0.2-1.2-0.5-1.7-0.8l0.5-1.2c0.3,0.3,0.8,0.7,1.5,0.8c0.7,0.2,1.2,0.3,1.9,0.3c0.8,0,1.5-0.2,1.9-0.3
		c0.3-0.3,0.7-0.7,0.7-1.2c0-0.3-0.2-0.7-0.3-0.8c-0.2-0.2-0.5-0.3-0.8-0.5c-0.3-0.2-0.8-0.2-1.4-0.3c-0.7-0.2-1.4-0.3-1.9-0.5
		c-0.5-0.2-0.8-0.5-1.2-0.8c-0.3-0.3-0.5-0.8-0.5-1.5c0-0.5,0.2-1,0.3-1.5c0.3-0.5,0.7-0.8,1.4-1c0.5-0.3,1.4-0.3,2.2-0.3
		c0.5,0,1.2,0,1.7,0.2c0.5,0.2,1,0.3,1.5,0.7l-0.7,1c-0.3-0.3-0.8-0.5-1.4-0.7c-0.3,0-0.8-0.2-1.4-0.2c-0.8,0-1.4,0.2-1.9,0.5
		c-0.3,0.3-0.5,0.7-0.5,1.2c0,0.3,0.2,0.7,0.3,0.8c0.2,0.2,0.5,0.3,0.8,0.5c0.3,0.2,0.8,0.2,1.4,0.3c0.7,0.2,1.4,0.3,1.9,0.5
		c0.5,0.2,0.8,0.5,1.2,0.8s0.5,0.8,0.5,1.5c0,0.5-0.2,1-0.5,1.5c-0.3,0.5-0.7,0.8-1.4,1c-0.5,0.2-1.4,0.3-2.2,0.3
		C21.7,111.9,21,111.7,20.3,111.6z"/>
	<path d="M44.4,108.4v3.4h-1.4v-3.6l-4.1-6.4h1.5l3.2,5.3l3.2-5.3h1.4L44.4,108.4z"/>
	<path d="M62.6,111.6c-0.7-0.2-1.2-0.5-1.7-0.8l0.5-1.2c0.3,0.3,0.8,0.7,1.5,0.8c0.7,0.2,1.2,0.3,1.9,0.3c0.8,0,1.5-0.2,1.9-0.3
		c0.3-0.3,0.7-0.7,0.7-1.2c0-0.3-0.2-0.7-0.3-0.8c-0.2-0.2-0.5-0.3-0.8-0.5c-0.3-0.2-0.8-0.2-1.4-0.3c-0.7-0.2-1.4-0.3-1.9-0.5
		c-0.5-0.2-0.8-0.5-1.2-0.8s-0.5-0.8-0.5-1.5c0-0.5,0.2-1,0.3-1.5c0.3-0.5,0.7-0.8,1.4-1c0.5-0.3,1.4-0.3,2.2-0.3
		c0.5,0,1.2,0,1.7,0.2c0.5,0.2,1,0.3,1.5,0.7l-0.5,1c-0.3-0.3-0.8-0.5-1.4-0.7c-0.5-0.2-1-0.2-1.4-0.2c-0.8,0-1.4,0.2-1.9,0.5
		c-0.3,0.3-0.7,0.7-0.7,1.2c0,0.3,0.2,0.7,0.3,0.8c0.2,0.2,0.5,0.3,0.8,0.5c0.3,0.2,0.8,0.2,1.4,0.3c0.7,0.2,1.4,0.3,1.9,0.5
		c0.5,0.2,0.8,0.5,1.2,0.8c0.3,0.3,0.5,0.8,0.5,1.5c0,0.5-0.2,1-0.5,1.5c-0.3,0.5-0.7,0.8-1.4,1c-0.5,0.2-1.4,0.3-2.2,0.3
		C63.9,111.9,63.3,111.7,62.6,111.6z"/>
	<path d="M84.8,102.9h-3.4v-1.2h8.3v1.2h-3.4v8.8h-1.5V102.9z"/>
	<path d="M110.8,110.6v1.2h-7.3v-10h7.1v1.2H105v3.1h5.1v1.2H105v3.2h5.8V110.6z"/>
	<path d="M134.7,111.7v-7.3l-3.6,6.1h-0.7l-3.7-6.1v7.3h-1.4v-10h1.2l4.2,7.1l4.1-7.1h1.2v10C136,111.7,134.7,111.7,134.7,111.7z"/>
</g>
</svg>
