<?xml version="1.0" encoding="utf-8"?>
<!-- Generator: Adobe Illustrator 25.2.0, SVG Export Plug-In . SVG Version: 6.00 Build 0)  -->
<svg version="1.1" id="Layer_1" xmlns="http://www.w3.org/2000/svg" xmlns:xlink="http://www.w3.org/1999/xlink" x="0px" y="0px"
	 viewBox="0 0 253.9 283.3" style="enable-background:new 0 0 253.9 283.3;" xml:space="preserve">
<style type="text/css">
	.st0{fill:#FFFFFF;}
</style>
<g>
	<g>
		<path class="st0" d="M38.3,100.2c3.8,1.7,6.7,4.1,8.7,7.3c2,3.1,3.1,6.9,3.1,11.1c0,4.2-1,7.9-3.1,11.1c-2,3.2-4.9,5.6-8.7,7.3
			c-3.8,1.7-8.2,2.5-13.3,2.5H13.4v15.9H0V97.6h25C30.1,97.6,34.6,98.5,38.3,100.2z M33.4,126c2.1-1.7,3.1-4.2,3.1-7.4
			c0-3.2-1-5.7-3.1-7.5c-2.1-1.7-5.1-2.6-9.2-2.6H13.4v20.1h10.9C28.3,128.6,31.3,127.7,33.4,126z"/>
		<path class="st0" d="M94.8,143H67.9l-5.1,12.4H49.1l25.8-57.8h13.2l25.8,57.8h-14L94.8,143z M90.5,132.8l-9.2-22.1l-9.2,22.1H90.5
			z"/>
		<path class="st0" d="M241.3,155.4l-0.1-34.7l-17,28.6h-6l-16.9-27.8v33.9h-12.5V97.6h11.1l21.6,35.9l21.3-35.9h11l0.2,57.8H241.3z
			"/>
		<path class="st0" d="M174.6,111.2c-2.8-4.5-6.5-8.1-11.3-10.7c-4.8-2.6-10.2-3.9-16.2-3.9c-6,0-11.4,1.3-16.2,3.9
			c-4.8,2.6-8.6,6.1-11.3,10.7c-2.7,4.5-4.1,9.6-4.1,15.3c0,5.7,1.4,10.8,4.1,15.3c2.7,4.5,6.5,8.1,11.3,10.7
			c4.8,2.6,10.2,3.9,16.2,3.9c6,0,11.4-1.3,16.2-3.9c4.8-2.6,8.6-6.1,11.3-10.7c2.8-4.5,4.1-9.6,4.1-15.3
			C178.7,120.8,177.3,115.7,174.6,111.2z M130.1,130c-0.2,0-0.3,0-0.5,0c0-0.2,0.1-0.3,0.2-0.3c0.7-0.8,1.4-1.6,2-2.4
			c3.4-4,6.8-8,10.2-12c0.5-0.6,1.1-1.2,1.6-1.9c0.9-1.1,2.1-1.7,3.4-2c0.4-0.1,0.8-0.1,1.2-0.1c3.5,0,7,0,10.5,0c0.1,0,0.2,0,0.4,0
			c-0.1,0.2-0.2,0.3-0.3,0.4c-0.7,0.8-1.4,1.6-2,2.4c-3.4,3.9-6.7,7.9-10.1,11.8c-0.5,0.6-1,1.2-1.5,1.8c-0.8,1-1.8,1.7-3,2.1
			c-0.4,0.1-0.9,0.2-1.3,0.2c-0.5,0-1,0-1.5,0C136.3,130.1,133.2,130,130.1,130z M164.4,123.2c-0.8,1-1.7,2-2.5,2.9
			c-3.6,4.3-7.3,8.5-10.9,12.8c-0.2,0.3-0.5,0.6-0.7,0.8c-0.9,0.9-2,1.5-3.2,1.8c-0.4,0.1-0.9,0.1-1.3,0.1c-1.9,0-3.9,0-5.8,0
			c-1.5,0-3,0-4.5,0c-0.1,0-0.3,0-0.5,0c0.2-0.2,0.2-0.3,0.3-0.4c2.2-2.6,4.4-5.2,6.6-7.8c2.4-2.8,4.8-5.6,7.1-8.4
			c1-1.1,2.2-1.8,3.7-2.1c0.4-0.1,0.8-0.1,1.2-0.1c3.5,0,6.9,0,10.4,0c0.1,0,0.2,0,0.3,0C164.5,123.1,164.4,123.2,164.4,123.2z"/>
	</g>
	<path class="st0" d="M30.9,186.1c-1.2-0.4-2.1-0.9-2.8-1.5l0.9-1.9c0.6,0.6,1.5,1.1,2.5,1.4c1,0.4,2.1,0.5,3.1,0.5
		c1.4,0,2.5-0.2,3.2-0.7c0.7-0.5,1-1.1,1-1.9c0-0.6-0.2-1.1-0.6-1.4c-0.4-0.4-0.8-0.6-1.4-0.8c-0.6-0.2-1.3-0.4-2.4-0.7
		c-1.3-0.3-2.3-0.6-3.1-0.9c-0.8-0.3-1.5-0.8-2-1.4c-0.6-0.6-0.8-1.5-0.8-2.6c0-0.9,0.2-1.7,0.7-2.5c0.5-0.7,1.2-1.3,2.2-1.7
		c1-0.4,2.2-0.7,3.6-0.7c1,0,2,0.1,3,0.4c1,0.3,1.8,0.6,2.5,1.1l-0.8,1.9c-0.7-0.5-1.5-0.8-2.3-1c-0.8-0.2-1.6-0.4-2.4-0.4
		c-1.4,0-2.4,0.3-3.1,0.8c-0.7,0.5-1,1.1-1,1.9c0,0.6,0.2,1.1,0.6,1.4c0.4,0.4,0.9,0.6,1.4,0.8c0.6,0.2,1.4,0.4,2.3,0.6
		c1.3,0.3,2.3,0.6,3.1,0.9c0.8,0.3,1.4,0.8,2,1.4c0.6,0.6,0.8,1.5,0.8,2.5c0,0.9-0.2,1.7-0.7,2.4c-0.5,0.7-1.2,1.3-2.2,1.7
		c-1,0.4-2.2,0.6-3.6,0.6C33.3,186.7,32.1,186.5,30.9,186.1z"/>
	<path class="st0" d="M71.5,180.7v5.9h-2.4v-5.9l-6.7-11.1H65l5.4,9l5.5-9h2.4L71.5,180.7z"/>
	<path class="st0" d="M102.3,186.1c-1.2-0.4-2.1-0.9-2.8-1.5l0.9-1.9c0.6,0.6,1.5,1.1,2.5,1.4c1,0.4,2.1,0.5,3.1,0.5
		c1.4,0,2.5-0.2,3.2-0.7c0.7-0.5,1-1.1,1-1.9c0-0.6-0.2-1.1-0.6-1.4c-0.4-0.4-0.8-0.6-1.4-0.8c-0.6-0.2-1.3-0.4-2.4-0.7
		c-1.3-0.3-2.3-0.6-3.1-0.9c-0.8-0.3-1.5-0.8-2-1.4c-0.6-0.6-0.8-1.5-0.8-2.6c0-0.9,0.2-1.7,0.7-2.5c0.5-0.7,1.2-1.3,2.2-1.7
		c1-0.4,2.2-0.7,3.6-0.7c1,0,2,0.1,3,0.4c1,0.3,1.8,0.6,2.5,1.1l-0.8,1.9c-0.7-0.5-1.5-0.8-2.3-1c-0.8-0.2-1.6-0.4-2.4-0.4
		c-1.4,0-2.4,0.3-3.1,0.8c-0.7,0.5-1,1.1-1,1.9c0,0.6,0.2,1.1,0.6,1.4c0.4,0.4,0.9,0.6,1.4,0.8c0.6,0.2,1.4,0.4,2.3,0.6
		c1.3,0.3,2.3,0.6,3.1,0.9c0.8,0.3,1.4,0.8,2,1.4c0.6,0.6,0.8,1.5,0.8,2.5c0,0.9-0.2,1.7-0.7,2.4c-0.5,0.7-1.2,1.3-2.2,1.7
		c-1,0.4-2.2,0.6-3.6,0.6C104.7,186.7,103.5,186.5,102.3,186.1z"/>
	<path class="st0" d="M139.9,171.6h-5.8v-2.1h14.1v2.1h-5.8v14.9h-2.4V171.6z"/>
	<path class="st0" d="M183.8,184.4v2.1h-12.3v-17h12v2.1h-9.6v5.2h8.5v2.1h-8.5v5.5H183.8z"/>
	<path class="st0" d="M224.2,186.5l0-12.4l-6.1,10.3h-1.1l-6.1-10.2v12.3h-2.3v-17h2l7.1,11.9l7-11.9h2l0,17H224.2z"/>
</g>
</svg>
